<?xml version="1.0" encoding="UTF-8" standalone="no"?>
<!-- Created with Inkscape (http://www.inkscape.org/) -->

<svg
   xmlns:dc="http://purl.org/dc/elements/1.1/"
   xmlns:cc="http://creativecommons.org/ns#"
   xmlns:rdf="http://www.w3.org/1999/02/22-rdf-syntax-ns#"
   xmlns:svg="http://www.w3.org/2000/svg"
   xmlns="http://www.w3.org/2000/svg"
   xmlns:sodipodi="http://sodipodi.sourceforge.net/DTD/sodipodi-0.dtd"
   xmlns:inkscape="http://www.inkscape.org/namespaces/inkscape"
   width="140"
   height="45"
   viewBox="0 0 140.00001 44.999999"
   id="svg4764"
   version="1.1"
   inkscape:version="0.91 r13725"
   sodipodi:docname="logo.svg"
   inkscape:export-filename="/home/evandro/Trabalho/Conab/2016-05 ConabCloudTheme/headerlogotalk.png"
   inkscape:export-xdpi="99.692307"
   inkscape:export-ydpi="99.692307">
  <defs
     id="defs4766">
    <filter
       inkscape:collect="always"
       style="color-interpolation-filters:sRGB"
       id="filter6432"
       x="-0.038234323"
       width="1.0764686"
       y="-0.13929859"
       height="1.2785972">
      <feGaussianBlur
         inkscape:collect="always"
         stdDeviation="0.78832629"
         id="feGaussianBlur6434" />
    </filter>
  </defs>
  <sodipodi:namedview
     id="base"
     pagecolor="#ffffff"
     bordercolor="#666666"
     borderopacity="1.0"
     inkscape:pageopacity="0.0"
     inkscape:pageshadow="2"
     inkscape:zoom="5.9111651"
     inkscape:cx="62.920424"
     inkscape:cy="9.3100758"
     inkscape:document-units="px"
     inkscape:current-layer="layer1"
     showgrid="false"
     units="px"
     inkscape:snap-bbox="true"
     inkscape:bbox-nodes="true"
     inkscape:window-width="1420"
     inkscape:window-height="878"
     inkscape:window-x="180"
     inkscape:window-y="0"
     inkscape:window-maximized="1">
    <inkscape:grid
       type="xygrid"
       id="grid5312" />
  </sodipodi:namedview>
  <metadata
     id="metadata4769">
    <rdf:RDF>
      <cc:Work
         rdf:about="">
        <dc:format>image/svg+xml</dc:format>
        <dc:type
           rdf:resource="http://purl.org/dc/dcmitype/StillImage" />
        <dc:title />
      </cc:Work>
    </rdf:RDF>
  </metadata>
  <g
     inkscape:label="Layer 1"
     inkscape:groupmode="layer"
     id="layer1"
     transform="translate(0,-1007.3622)">
    <text
       sodipodi:linespacing="125%"
       id="text5948"
       y="1035.959"
       x="38.736324"
       style="font-style:normal;font-variant:normal;font-weight:600;font-stretch:normal;font-size:18.35434151px;line-height:125%;font-family:TheSans;-inkscape-font-specification:'TheSans Semi-Bold';letter-spacing:0px;word-spacing:0px;fill:#babdb6;fill-opacity:1;stroke:none;stroke-width:1px;stroke-linecap:butt;stroke-linejoin:miter;stroke-opacity:1;filter:url(#filter6432)"
       xml:space="preserve"><tspan
         y="1035.959"
         x="38.736324"
         id="tspan5950"
         sodipodi:role="line">Conab</tspan></text>
    <path
       style="font-style:normal;font-variant:normal;font-weight:600;font-stretch:normal;font-size:18.35434151px;line-height:125%;font-family:TheSans;-inkscape-font-specification:'TheSans Semi-Bold';letter-spacing:0px;word-spacing:0px;fill:#ffffff;fill-opacity:1;stroke:none;stroke-width:1px;stroke-linecap:butt;stroke-linejoin:miter;stroke-opacity:1"
       d="m 49.473038,1035.3204 c -0.212246,-0.4792 0.07609,-1.8483 -0.510946,-1.6611 -2.009106,0.8404 -5.07031,0.655 -5.894248,-1.7414 -0.672773,-2.112 -0.584416,-4.9479 1.375634,-6.3556 1.348511,-1.1748 3.753324,0.034 4.735865,-0.4223 0.05296,-0.8082 0.59813,-1.9905 -0.818857,-1.7288 -2.674519,-0.5719 -5.996206,0.2527 -7.143497,2.9806 -1.034014,2.5139 -1.097635,5.8023 0.754086,7.9612 1.902529,1.9697 5.1103,1.8202 7.501963,0.9674 z m 10.186884,-4.295 c 0.14422,-2.032 -1.07254,-4.3184 -3.286539,-4.5056 -2.286032,-0.4791 -4.767503,1.0063 -5.249202,3.3281 -0.542373,2.1768 -0.003,5.197 2.474545,5.8896 2.258125,0.7537 5.010049,-0.4192 5.732252,-2.7588 0.225823,-0.6245 0.329133,-1.2901 0.328944,-1.9533 z m -2.018978,0.1285 c 0.232805,1.7151 -1.276074,3.6764 -3.111818,2.9884 -1.835456,-0.7403 -1.848797,-3.3573 -1.121403,-4.897 0.783437,-1.6347 3.565574,-1.4766 4.011074,0.3399 0.170343,0.5037 0.220884,1.0397 0.222147,1.5687 z m 11.802049,4.607 c -0.03957,-2.4179 0.08471,-4.8452 -0.07296,-7.2564 -0.239383,-2.1656 -3.077026,-2.5537 -4.609696,-1.4987 -0.774747,0.2838 -1.483472,2.3605 -1.128792,0.5094 0.483604,-1.2726 -0.864817,-0.7912 -1.612224,-0.8764 -0.520736,0.1033 -0.08908,1.159 -0.230093,1.642 0,2.4934 0,4.9867 0,7.4801 0.654638,0 1.309277,0 1.963915,0 0.06618,-1.893 -0.161414,-3.815 0.179241,-5.6821 0.09537,-1.8517 3.439423,-3.0029 3.549594,-0.5953 0.0347,2.0919 0.0061,4.185 0.01545,6.2774 0.64852,0 1.297041,0 1.945561,0 z m 9.617639,0 c -0.158931,-2.3972 0.07085,-4.8121 -0.144594,-7.2019 -0.330101,-1.9946 -2.700498,-2.2635 -4.342182,-2.0582 -1.00996,0.1821 -2.826935,0.1456 -2.228936,1.5802 -0.08768,1.4883 1.868011,-0.6166 2.787883,-0.084 1.548273,-0.6381 2.965939,2.7168 1.017023,2.3443 -1.915102,0.077 -4.486463,0.9788 -4.485994,3.2721 -0.133892,1.7434 1.833558,2.696 3.331425,2.2493 1.010313,0.3002 2.326052,-2.1318 2.221337,-1.4001 -0.401297,1.205 0.235494,1.4807 1.287706,1.2983 0.185444,0 0.370888,0 0.556332,0 z m -2.018978,-3.9462 c 0.137389,1.5668 -1.670935,3.3111 -3.152358,2.2828 -1.265447,-1.8922 1.721598,-2.6682 3.152358,-2.4664 l 0,0.1027 0,0.081 z m 12.958355,-1.0646 c 0.104864,-1.8608 -0.821609,-4.1876 -2.964208,-4.2769 -1.370364,-0.2037 -2.787767,0.6066 -3.331331,1.8358 0.301715,-1.9653 0.111633,-3.9651 0.165189,-5.9468 -0.654638,0 -1.309276,0 -1.963915,0 0,4.3867 0,8.7734 0,13.1601 2.352942,0.5567 5.475738,0.8431 7.101585,-1.3634 0.724727,-0.9734 0.99459,-2.2134 0.99268,-3.4088 z m -2.074041,0.1836 c 0.216807,1.7704 -1.045569,3.8022 -3.031621,3.4033 -1.384215,0.3097 -0.97466,-0.9805 -1.024688,-1.815 -0.05972,-1.5903 0.0177,-3.6784 1.739002,-4.3569 1.731451,-0.5476 2.436909,1.3971 2.317307,2.7686 z"
       id="text4143"
       inkscape:connector-curvature="0" />
    <g
       style="font-style:normal;font-variant:normal;font-weight:normal;font-stretch:condensed;font-size:11.25000191px;line-height:125%;font-family:'Roboto Condensed';-inkscape-font-specification:'Roboto Condensed, Condensed';letter-spacing:0px;word-spacing:0px;fill:#4e9a06;fill-opacity:1;stroke:none;stroke-width:1px;stroke-linecap:butt;stroke-linejoin:miter;stroke-opacity:1"
       id="text5940">
      <path
         d="m 94.122567,1044.5393 c 0.240089,1.4721 -0.935021,3.3516 -2.592259,2.6817 -0.61462,-0.33 -0.878078,-1.0205 -0.824491,0 -0.719884,0.1478 -1.068418,-0.076 -0.884399,-0.8319 0,-2.5352 0,-5.0704 0,-7.6056 0.645501,-0.077 1.20373,-0.066 0.966797,0.7395 0,0.8026 0,1.6053 0,2.408 0.782514,-1.3784 3.094589,-0.7578 3.208008,0.7965 0.144049,0.5921 0.126016,1.203 0.126344,1.8073 z m -0.966797,-0.5548 c 0.642462,-1.8061 -2.301212,-2.7955 -2.367554,-0.7674 0.05998,0.8757 -0.123063,1.8104 0.09699,2.6473 1.218874,1.6619 2.690972,-0.3409 2.270565,-1.7433 l 0,-0.092 0,-0.044 z"
         id="path4151"
         inkscape:connector-curvature="0" />
      <path
         d="m 97.489877,1047.3353 c -1.577209,0.1606 -2.512035,-1.4777 -2.307129,-2.881 -0.128132,-1.3341 0.355899,-3.1535 1.944838,-3.2705 1.671395,-0.3227 2.550522,1.4902 2.339831,2.9087 0.203828,0.7859 -0.829713,0.3345 -1.294045,0.4523 -0.674609,0 -1.349218,0 -2.023827,0 -0.397687,1.5453 1.558835,2.6706 2.617493,1.4495 1.506792,0.1105 -0.294736,1.6028 -1.277161,1.341 z m -0.109863,-5.3283 c -1.179313,-0.1379 -1.831981,2.2376 -0.300658,1.7028 0.424299,-0.1515 1.531804,0.3468 1.402553,-0.3357 -0.01354,-0.6424 -0.329017,-1.43 -1.101895,-1.3671 z"
         id="path4153"
         inkscape:connector-curvature="0" />
      <path
         d="m 101.90638,1039.8427 c 0.13933,0.4328 -0.30687,1.4512 0.2773,1.4392 0.68393,-0.4006 0.9097,0.8227 0.34079,0.7855 -0.84441,-0.2687 -0.59293,0.5586 -0.61809,1.1092 0.051,1.0342 -0.11681,2.1029 0.11536,3.1095 0.71515,-0.1442 1.18866,0.7446 0.44081,1.0217 -1.50741,0.3278 -1.60546,-1.416 -1.52298,-2.4734 0,-0.9224 0,-1.8447 0,-2.7671 -0.68092,0.117 -1.107132,-0.021 -0.90637,-0.7855 0.71858,0.1392 1.09704,-0.062 0.90637,-0.8319 -0.19887,-0.8967 0.37232,-0.5394 0.96681,-0.6072 z"
         id="path4155"
         inkscape:connector-curvature="0" />
      <path
         d="m 107.01502,1047.2255 c 0.0209,-1.3345 -1.22057,0.8568 -2.1643,-0 -1.64215,-0.6324 -1.12668,-3.3411 0.56811,-3.5192 0.78122,-0.1193 1.82088,0.1876 1.43861,-0.9605 -0.39768,-1.5147 -1.86419,-0.3361 -2.20712,0.1868 -1.59091,0.2779 0.10891,-1.9912 1.04188,-1.743 1.4555,-0.3204 2.39979,1.0922 2.1468,2.4065 0.0398,1.2117 -0.12016,2.45 0.18677,3.6323 -0.33689,-10e-5 -0.67403,10e-5 -1.01075,-10e-5 z m -1.29638,-0.7746 c 1.27749,0.038 1.20718,-1.1992 1.15356,-2.0786 -1.15404,-0.4803 -2.9529,1.0336 -1.56692,2.0223 l 0.18917,0.042 0.22419,0.014 0,0 z"
         id="path4157"
         inkscape:connector-curvature="0" />
    </g>
    <text
       xml:space="preserve"
       style="font-style:normal;font-variant:normal;font-weight:600;font-stretch:normal;font-size:32.99036026px;line-height:125%;font-family:TheSans;-inkscape-font-specification:'TheSans Semi-Bold';letter-spacing:0px;word-spacing:0px;fill:#083160;fill-opacity:1;stroke:none;stroke-width:1px;stroke-linecap:butt;stroke-linejoin:miter;stroke-opacity:1"
       x="-166.12492"
       y="1264.3821"
       id="text4137"
       sodipodi:linespacing="125%"><tspan
         sodipodi:role="line"
         id="tspan4139"
         x="-166.12492"
         y="1264.3821">Conab</tspan></text>
    <g
       style="font-style:normal;font-variant:normal;font-weight:600;font-stretch:normal;font-size:18.35405731px;line-height:125%;font-family:TheSans;-inkscape-font-specification:'TheSans Semi-Bold';letter-spacing:0px;word-spacing:0px;fill:#4e9a06;fill-opacity:1;stroke:none;stroke-width:1px;stroke-linecap:butt;stroke-linejoin:miter;stroke-opacity:1"
       id="text4141">
      <path
         d="m 101.7922,1029.8099 c 0.11927,-2.3266 -1.00743,-4.9272 -3.392391,-5.6364 -2.179768,-0.7276 -4.506747,-0.3472 -6.757408,-0.3658 0,4.1235 0,8.2471 0,12.3706 2.789489,0.062 5.976659,0.475 8.231797,-1.5513 1.371252,-1.1922 1.934392,-3.0487 1.918002,-4.8171 z m -2.129076,0.1468 c 0.134635,1.9723 -1.073624,4.0878 -3.126826,4.4371 -0.82799,-0.01 -2.935058,0.6966 -2.893304,-0.4952 0,-2.8191 0,-5.6381 0,-8.4572 1.860584,-0.1441 4.241322,-0.2136 5.346621,1.6035 0.532128,0.8673 0.670393,1.9121 0.673509,2.9118 z"
         id="path4160"
         inkscape:connector-curvature="0" />
      <path
         d="m 110.74905,1036.1787 c -0.15937,-2.3971 0.0706,-4.8119 -0.14463,-7.2017 -0.30226,-1.9082 -2.54008,-2.2503 -4.1267,-2.0778 -0.76402,0.2556 -2.73955,-0.019 -2.49584,1.131 0.0123,0.8896 0.0981,1.4845 1.09859,0.6769 1.37358,-0.6063 3.96113,-0.4635 3.6496,1.618 -0.35564,0.9682 -2.61348,0.1994 -3.5517,1.0704 -1.76326,0.6251 -2.56323,3.2753 -0.96038,4.487 1.57135,1.068 4.02122,0.2921 4.73227,-1.3927 -0.17012,0.9419 -0.33003,2.0487 0.92495,1.6886 0.29121,2e-4 0.58297,-4e-4 0.87384,3e-4 z m -2.01894,-3.9461 c 0.0995,1.498 -1.45362,3.1426 -2.97286,2.4127 -1.55697,-1.3737 0.83298,-2.8111 2.22528,-2.5743 0.18988,0.094 0.87237,-0.2559 0.74758,0.1616 z"
         id="path4162"
         inkscape:connector-curvature="0" />
      <path
         d="m 119.06363,1033.4072 c 0.11981,-1.5845 -1.47839,-2.335 -2.76028,-2.6841 -2.37963,-0.455 -0.80651,-3.0872 1.01377,-2.3071 1.14521,0.5477 1.21815,-0.1155 1.14875,-1.0741 -0.3793,-0.8217 -2.2452,-0.4038 -3.15029,-0.2991 -1.80669,0.2617 -2.96126,2.4667 -1.9395,4.031 0.80735,1.3166 2.82701,0.91 3.58699,2.2055 0.22546,2.073 -2.69758,1.4523 -3.73904,1.3216 0.11498,0.491 -0.32015,1.4263 0.16626,1.6173 1.94925,0.3541 4.63199,0.2141 5.51666,-1.9044 0.10601,-0.2896 0.15699,-0.5985 0.15668,-0.9066 z"
         id="path4164"
         inkscape:connector-curvature="0" />
      <path
         d="m 128.97464,1036.1787 c -0.0393,-2.4179 0.0844,-4.8451 -0.073,-7.2563 -0.17943,-1.8586 -2.40415,-2.4372 -3.91442,-1.8399 -1.02368,-0.12 -2.2018,2.8089 -1.73678,0.7731 0.069,-1.6903 0.0194,-3.3835 0.0344,-5.075 -0.65463,0 -1.30926,0 -1.96389,0 0,4.4662 0,8.9323 0,13.3985 0.65463,0 1.30926,0 1.96389,0 0.0435,-1.7897 -0.10118,-3.5926 0.10223,-5.3713 -0.0296,-1.7501 2.91946,-3.4456 3.5769,-1.2631 0.14061,2.2045 0.0298,4.4238 0.0651,6.6344 0.64837,-3e-4 1.29783,5e-4 1.94552,-4e-4 z"
         id="path4166"
         inkscape:connector-curvature="0" />
    </g>
    <path
       style="opacity:1;fill:#083160;fill-opacity:1;fill-rule:nonzero;stroke:#2b9934;stroke-width:2.08218884;stroke-linecap:butt;stroke-linejoin:round;stroke-miterlimit:4;stroke-dasharray:none;stroke-dashoffset:0;stroke-opacity:1"
       d="m 9.6205702,1018.4033 c 7.4001418,0 14.8005218,-0.01 22.2005148,0.01 2.99641,0.066 5.471706,2.9297 5.196672,5.8964 -0.01792,3.6986 0.03641,7.3995 -0.02819,11.0966 -0.216297,2.8862 -3.010161,5.1761 -5.875328,4.9177 -7.258795,-0 -14.517827,0.01 -21.7764726,-0.01 -2.9964103,-0.066 -5.4717059,-2.9297 -5.1966724,-5.8964 0.017923,-3.6986 -0.036408,-7.3995 0.028187,-11.0966 0.2263564,-2.7338 2.7074438,-4.9719 5.4512855,-4.9177 z"
       id="rect6088"
       inkscape:connector-curvature="0" />
    <circle
       style="opacity:1;fill:#ef2929;fill-opacity:1;fill-rule:nonzero;stroke:none;stroke-width:1.89999998;stroke-linecap:butt;stroke-linejoin:round;stroke-miterlimit:4;stroke-dasharray:none;stroke-dashoffset:0;stroke-opacity:1"
       id="path6090"
       cx="13.499999"
       cy="1028.8622"
       r="2.5000014" />
    <ellipse
       style="opacity:1;fill:#fcaf3e;fill-opacity:1;fill-rule:nonzero;stroke:none;stroke-width:1.89999998;stroke-linecap:butt;stroke-linejoin:round;stroke-miterlimit:4;stroke-dasharray:none;stroke-dashoffset:0;stroke-opacity:1"
       id="path6090-9"
       cx="20.499998"
       cy="1028.8622"
       rx="2.5000017"
       ry="2.5000019" />
    <ellipse
       style="opacity:1;fill:#8ae234;fill-opacity:1;fill-rule:nonzero;stroke:none;stroke-width:1.89999998;stroke-linecap:butt;stroke-linejoin:round;stroke-miterlimit:4;stroke-dasharray:none;stroke-dashoffset:0;stroke-opacity:1"
       id="path6090-4"
       cx="27.500004"
       cy="1028.8622"
       rx="2.5000017"
       ry="2.5000019" />
  </g>
</svg>
