<?xml version="1.0" encoding="UTF-8" standalone="no"?>
<svg
   xmlns:dc="http://purl.org/dc/elements/1.1/"
   xmlns:cc="http://creativecommons.org/ns#"
   xmlns:rdf="http://www.w3.org/1999/02/22-rdf-syntax-ns#"
   xmlns:svg="http://www.w3.org/2000/svg"
   xmlns="http://www.w3.org/2000/svg"
   xmlns:sodipodi="http://sodipodi.sourceforge.net/DTD/sodipodi-0.dtd"
   xmlns:inkscape="http://www.inkscape.org/namespaces/inkscape"
   width="140"
   height="45"
   viewBox="0 0 140 45"
   id="svg5072"
   version="1.1"
   inkscape:version="0.91 r13725"
   sodipodi:docname="logo.svg">
  <metadata
     id="metadata5105">
    <rdf:RDF>
      <cc:Work
         rdf:about="">
        <dc:format>image/svg+xml</dc:format>
        <dc:type
           rdf:resource="http://purl.org/dc/dcmitype/StillImage" />
      </cc:Work>
    </rdf:RDF>
  </metadata>
  <sodipodi:namedview
     pagecolor="#ffffff"
     bordercolor="#666666"
     borderopacity="1"
     objecttolerance="10"
     gridtolerance="10"
     guidetolerance="10"
     inkscape:pageopacity="0"
     inkscape:pageshadow="2"
     inkscape:window-width="1742"
     inkscape:window-height="1054"
     id="namedview5103"
     showgrid="false"
     inkscape:zoom="6.2174889"
     inkscape:cx="20.789708"
     inkscape:cy="22.5"
     inkscape:window-x="178"
     inkscape:window-y="0"
     inkscape:window-maximized="1"
     inkscape:current-layer="svg5072"
     inkscape:snap-bbox="true"
     inkscape:snap-bbox-edge-midpoints="true">
    <inkscape:grid
       type="xygrid"
       id="grid5107" />
  </sodipodi:namedview>
  <defs
     id="defs5074">
    <filter
       id="a"
       width="1.076"
       height="1.279"
       x="-.038"
       y="-.139"
       color-interpolation-filters="sRGB">
      <feGaussianBlur
         stdDeviation=".788"
         id="feGaussianBlur5077" />
    </filter>
    <filter
       style="color-interpolation-filters:sRGB;"
       inkscape:label="Blur"
       id="filter5135">
      <feGaussianBlur
         stdDeviation="1.92 2"
         result="blur"
         id="feGaussianBlur5137" />
    </filter>
  </defs>
  <path
     inkscape:connector-curvature="0"
     id="path5085-3"
     word-spacing="0"
     letter-spacing="0"
     font-size="18.354"
     font-weight="600"
     style="font-weight:600;font-size:18.35400009px;line-height:125%;font-family:TheSans;-inkscape-font-specification:'TheSans Semi-Bold';letter-spacing:0;word-spacing:0;fill:#1a1a1a;filter:url(#filter5135);fill-opacity:1;opacity:0.286"
     d="m 49.36252,28.102597 c -0.212,-0.48 0.076,-1.848 -0.51,-1.66 -2.01,0.84 -5.07,0.654 -5.895,-1.742 -0.673,-2.112 -0.585,-4.948 1.375,-6.356 1.35,-1.175 3.754,0.034 4.736,-0.422 0.05,-0.808 0.59,-1.99 -0.82,-1.73 -2.68,-0.57 -6,0.254 -7.15,2.982 -1.04,2.514 -1.1,5.802 0.75,7.96 1.9,1.97 5.11,1.82 7.5,0.968 z m 10.187,-4.295 c 0.144,-2.032 -1.073,-4.318 -3.287,-4.505 -2.286,-0.48 -4.767,1.006 -5.25,3.328 -0.54,2.177 -0.002,5.197 2.476,5.89 2.25,0.753 5.01,-0.42 5.73,-2.76 0.22,-0.624 0.33,-1.29 0.33,-1.953 z m -2.02,0.13 c 0.234,1.714 -1.275,3.675 -3.11,2.987 -1.836,-0.74 -1.85,-3.357 -1.122,-4.897 0.783,-1.634 3.565,-1.476 4.01,0.34 0.17,0.504 0.222,1.04 0.223,1.57 z m 11.803,4.606 c -0.04,-2.41 0.085,-4.84 -0.073,-7.25 -0.24,-2.16 -3.077,-2.55 -4.61,-1.5 -0.774,0.29 -1.483,2.36 -1.128,0.51 0.483,-1.27 -0.865,-0.79 -1.613,-0.87 -0.52,0.11 -0.09,1.16 -0.23,1.64 l 0,7.48 1.96,0 c 0.06,-1.89 -0.16,-3.81 0.18,-5.68 0.09,-1.85 3.44,-3 3.55,-0.59 0.03,2.09 0,4.19 0.01,6.28 l 1.94,0 z m 9.618,0 c -0.15,-2.39 0.07,-4.81 -0.14,-7.2 -0.33,-1.99 -2.7,-2.26 -4.34,-2.06 -1.01,0.19 -2.82,0.15 -2.23,1.58 -0.08,1.49 1.87,-0.61 2.79,-0.08 1.55,-0.64 2.97,2.72 1.02,2.35 -1.91,0.08 -4.48,0.98 -4.48,3.28 -0.13,1.75 1.84,2.7 3.33,2.25 1.01,0.3 2.33,-2.13 2.23,-1.4 -0.4,1.21 0.24,1.48 1.29,1.3 l 0.56,0 z m -2.01,-3.94 c 0.14,1.57 -1.67,3.31 -3.15,2.28 -1.26,-1.89 1.72,-2.67 3.16,-2.46 l 0,0.19 z m 12.95,-1.07 c 0.11,-1.86 -0.82,-4.18 -2.96,-4.27 -1.37,-0.2 -2.79,0.61 -3.33,1.84 0.3,-1.97 0.11,-3.97 0.17,-5.95 l -1.97,0 0,13.16 c 2.36,0.56 5.48,0.84 7.1,-1.36 0.73,-0.974 1,-2.214 1,-3.41 z m -2.07,0.19 c 0.22,1.77 -1.04,3.8 -3.03,3.41 -1.38,0.31 -0.97,-0.98 -1.02,-1.81 -0.06,-1.59 0.02,-3.68 1.74,-4.356 1.73,-0.547 2.44,1.398 2.32,2.77 z" />
  <path
     inkscape:connector-curvature="0"
     id="path5085"
     word-spacing="0"
     letter-spacing="0"
     font-size="18.354"
     font-weight="600"
     style="font-weight:600;font-size:18.35400009px;line-height:125%;font-family:TheSans;-inkscape-font-specification:'TheSans Semi-Bold';letter-spacing:0;word-spacing:0;fill:#ffffff"
     d="m 49.473,27.958 c -0.212,-0.48 0.076,-1.848 -0.51,-1.66 -2.01,0.84 -5.07,0.654 -5.895,-1.742 -0.673,-2.112 -0.585,-4.948 1.375,-6.356 1.35,-1.175 3.754,0.034 4.736,-0.422 0.05,-0.808 0.59,-1.99 -0.82,-1.73 -2.68,-0.57 -6,0.254 -7.15,2.982 -1.04,2.514 -1.1,5.802 0.75,7.96 1.9,1.97 5.11,1.82 7.5,0.968 z M 59.66,23.663 c 0.144,-2.032 -1.073,-4.318 -3.287,-4.505 -2.286,-0.48 -4.767,1.006 -5.25,3.328 -0.54,2.177 -0.002,5.197 2.476,5.89 2.25,0.753 5.01,-0.42 5.73,-2.76 0.22,-0.624 0.33,-1.29 0.33,-1.953 z m -2.02,0.13 c 0.234,1.714 -1.275,3.675 -3.11,2.987 -1.836,-0.74 -1.85,-3.357 -1.122,-4.897 0.783,-1.634 3.565,-1.476 4.01,0.34 0.17,0.504 0.222,1.04 0.223,1.57 z m 11.803,4.606 c -0.04,-2.41 0.085,-4.84 -0.073,-7.25 -0.24,-2.16 -3.077,-2.55 -4.61,-1.5 -0.774,0.29 -1.483,2.36 -1.128,0.51 0.483,-1.27 -0.865,-0.79 -1.613,-0.87 -0.52,0.11 -0.09,1.16 -0.23,1.64 l 0,7.48 1.96,0 c 0.06,-1.89 -0.16,-3.81 0.18,-5.68 0.09,-1.85 3.44,-3 3.55,-0.59 0.03,2.09 0,4.19 0.01,6.28 l 1.94,0 z m 9.618,0 c -0.15,-2.39 0.07,-4.81 -0.14,-7.2 -0.33,-1.99 -2.7,-2.26 -4.34,-2.06 -1.01,0.19 -2.82,0.15 -2.23,1.58 -0.08,1.49 1.87,-0.61 2.79,-0.08 1.55,-0.64 2.97,2.72 1.02,2.35 -1.91,0.08 -4.48,0.98 -4.48,3.28 -0.13,1.75 1.84,2.7 3.33,2.25 1.01,0.3 2.33,-2.13 2.23,-1.4 -0.4,1.21 0.24,1.48 1.29,1.3 l 0.56,0 z m -2.01,-3.94 c 0.14,1.57 -1.67,3.31 -3.15,2.28 -1.26,-1.89 1.72,-2.67 3.16,-2.46 l 0,0.19 z m 12.95,-1.07 c 0.11,-1.86 -0.82,-4.18 -2.96,-4.27 -1.37,-0.2 -2.79,0.61 -3.33,1.84 0.3,-1.97 0.11,-3.97 0.17,-5.95 l -1.97,0 0,13.16 c 2.36,0.56 5.48,0.84 7.1,-1.36 0.73,-0.974 1,-2.214 1,-3.41 z m -2.07,0.19 c 0.22,1.77 -1.04,3.8 -3.03,3.41 -1.38,0.31 -0.97,-0.98 -1.02,-1.81 -0.06,-1.59 0.02,-3.68 1.74,-4.356 1.73,-0.547 2.44,1.398 2.32,2.77 z" />
  <path
     inkscape:connector-curvature="0"
     id="path5087"
     word-spacing="0"
     letter-spacing="0"
     font-size="11.25"
     font-stretch="condensed"
     style="font-stretch:condensed;font-size:11.25px;line-height:125%;font-family:'Roboto Condensed';-inkscape-font-specification:'Roboto Condensed, Condensed';letter-spacing:0;word-spacing:0;fill:#4e9a06"
     d="m 94.123,37.178 c 0.24,1.47 -0.935,3.35 -2.593,2.68 -0.614,-0.33 -0.878,-1.02 -0.824,0 -0.72,0.15 -1.07,-0.075 -0.885,-0.83 l 0,-7.607 c 0.65,-0.076 1.21,-0.065 0.97,0.74 l 0,2.408 c 0.79,-1.37 3.1,-0.75 3.21,0.8 0.15,0.6 0.13,1.21 0.13,1.81 z m -0.967,-0.556 c 0.642,-1.806 -2.3,-2.795 -2.368,-0.767 0.06,0.876 -0.123,1.81 0.097,2.647 1.22,1.662 2.69,-0.34 2.27,-1.743 l 0,-0.13 z m 4.334,3.35 c -1.577,0.16 -2.512,-1.476 -2.307,-2.88 -0.128,-1.334 0.356,-3.153 1.945,-3.27 1.67,-0.323 2.55,1.49 2.34,2.908 0.203,0.786 -0.83,0.335 -1.295,0.453 l -2.023,0 c -0.398,1.545 1.558,2.67 2.617,1.45 1.507,0.11 -0.295,1.602 -1.277,1.34 z m -0.11,-5.327 c -1.18,-0.138 -1.832,2.238 -0.3,1.703 0.424,-0.152 1.53,0.347 1.402,-0.336 -0.014,-0.642 -0.33,-1.43 -1.102,-1.367 z m 4.526,-2.164 c 0.14,0.432 -0.306,1.45 0.278,1.44 0.684,-0.402 0.91,0.822 0.34,0.784 -0.844,-0.268 -0.592,0.56 -0.618,1.11 0.05,1.034 -0.116,2.103 0.116,3.11 0.715,-0.145 1.188,0.744 0.44,1.02 -1.507,0.33 -1.605,-1.415 -1.522,-2.473 l 0,-2.767 c -0.68,0.117 -1.108,-0.02 -0.907,-0.785 0.72,0.14 1.097,-0.062 0.907,-0.832 -0.2,-0.897 0.372,-0.54 0.966,-0.607 z m 5.11,7.383 c 0.02,-1.335 -1.22,0.856 -2.165,0 -1.64,-0.633 -1.12,-3.342 0.57,-3.52 0.78,-0.12 1.82,0.188 1.44,-0.96 -0.39,-1.515 -1.86,-0.336 -2.2,0.187 -1.59,0.278 0.11,-1.992 1.05,-1.743 1.46,-0.32 2.4,1.092 2.15,2.406 0.04,1.212 -0.12,2.45 0.19,3.632 l -1.01,0 z m -1.297,-0.775 c 1.27,0.04 1.2,-1.19 1.15,-2.07 -1.16,-0.48 -2.96,1.04 -1.57,2.03 l 0.19,0.04 0.22,0.02 z" />
  <text
     sodipodi:linespacing="125%"
     id="text5089"
     word-spacing="0"
     letter-spacing="0"
     font-size="32.99"
     font-weight="600"
     style="font-weight:600;font-size:32.99000168px;line-height:125%;font-family:TheSans;-inkscape-font-specification:'TheSans Semi-Bold';letter-spacing:0;word-spacing:0;fill:#083160"
     y="257.01996"
     x="-166.125">
    <tspan
       id="tspan5091"
       y="257.01996"
       x="-166.125">Conab</tspan>
  </text>
  <path
     inkscape:connector-curvature="0"
     id="path5093"
     word-spacing="0"
     letter-spacing="0"
     font-size="18.354"
     font-weight="600"
     style="font-weight:600;font-size:18.35400009px;line-height:125%;font-family:TheSans;-inkscape-font-specification:'TheSans Semi-Bold';letter-spacing:0;word-spacing:0;fill:#4e9a06"
     d="m 101.792,22.448 c 0.12,-2.327 -1.007,-4.927 -3.392,-5.636 -2.18,-0.728 -4.507,-0.348 -6.758,-0.366 l 0,12.37 c 2.79,0.062 5.977,0.475 8.232,-1.55 1.37,-1.193 1.935,-3.05 1.918,-4.818 z m -2.13,0.147 c 0.136,1.972 -1.073,4.087 -3.126,4.437 -0.828,-0.01 -2.935,0.696 -2.893,-0.495 l 0,-8.46 c 1.86,-0.15 4.24,-0.22 5.347,1.6 0.532,0.86 0.67,1.91 0.673,2.91 z m 11.088,6.223 c -0.16,-2.398 0.07,-4.813 -0.146,-7.203 -0.302,-1.908 -2.54,-2.25 -4.126,-2.078 -0.764,0.25 -2.74,-0.02 -2.496,1.13 0.012,0.89 0.098,1.48 1.098,0.67 1.374,-0.61 3.962,-0.47 3.65,1.62 -0.356,0.97 -2.613,0.2 -3.552,1.07 -1.763,0.62 -2.563,3.27 -0.96,4.48 1.57,1.07 4.02,0.29 4.732,-1.39 -0.17,0.94 -0.33,2.04 0.925,1.68 l 0.874,0 z m -2.02,-3.947 c 0.1,1.498 -1.454,3.142 -2.973,2.412 -1.557,-1.373 0.833,-2.81 2.226,-2.574 0.19,0.1 0.872,-0.25 0.747,0.17 z m 10.334,1.174 c 0.12,-1.584 -1.48,-2.335 -2.76,-2.684 -2.38,-0.455 -0.807,-3.087 1.013,-2.307 1.145,0.548 1.218,-0.115 1.15,-1.074 -0.38,-0.822 -2.246,-0.404 -3.15,-0.3 -1.808,0.263 -2.963,2.468 -1.94,4.032 0.806,1.316 2.826,0.91 3.586,2.205 0.226,2.07 -2.698,1.45 -3.74,1.32 0.116,0.49 -0.32,1.42 0.167,1.61 1.95,0.35 4.632,0.21 5.517,-1.91 0.106,-0.29 0.157,-0.6 0.157,-0.91 z m 9.91,2.773 c -0.04,-2.42 0.085,-4.846 -0.072,-7.258 -0.18,-1.858 -2.405,-2.437 -3.915,-1.84 -1.023,-0.12 -2.202,2.81 -1.737,0.774 0.07,-1.69 0.02,-3.384 0.035,-5.075 l -1.964,0 0,13.4 1.97,0 c 0.05,-1.79 -0.1,-3.59 0.1,-5.37 -0.03,-1.75 2.92,-3.44 3.58,-1.26 0.14,2.21 0.03,4.43 0.07,6.64 l 1.95,0 z" />
  <path
     style="fill:#083160;stroke:#2b9934;stroke-width:1;stroke-linejoin:round;stroke-miterlimit:4;stroke-dasharray:none"
     inkscape:connector-curvature="0"
     id="path5095"
     d="m 31.548677,11.050685 c 0,7.4 0.01,14.8 -0.01,22.2 -0.066,2.997 -2.93,5.473 -5.897,5.198 -3.698,-0.018 -7.4,0.036 -11.096,-0.028 -2.887,-0.217 -5.176,-3.01 -4.918,-5.876 0,-7.26 -0.01,-14.518 0.01,-21.776 0.066,-2.9970004 2.93,-5.4720004 5.896,-5.1970004 3.7,0.02 7.4,-0.03 11.097,0.03 2.73,0.23 4.97,2.71 4.91,5.4500004 z" />
  <circle
     style="fill:#cc333f;fill-opacity:0.94117647"
     id="circle5097"
     r="4"
     cy="-21"
     cx="14"
     transform="matrix(0,1,-1,0,0,0)" />
  <circle
     style="fill:#eb6841;fill-opacity:1"
     r="2.5"
     id="ellipse5099"
     cy="-21.089617"
     cx="21.930685"
     transform="matrix(0,1,-1,0,0,0)" />
  <circle
     style="fill:#00a0b0;fill-opacity:1"
     r="2.5"
     id="ellipse5101"
     cy="-21.089617"
     cx="28.930685"
     transform="matrix(0,1,-1,0,0,0)" />
</svg>
